<svg width="1004" height="1000" viewBox="0 0 1004 1000" fill="none" xmlns="http://www.w3.org/2000/svg">
<g clip-path="url(#clip0_1_8737)" filter="url(#filter0_d_1_8737)">
<path d="M947.668 926.731L976.948 799.6L1012.8 876.055C1019.99 849.791 1020.3 820.278 1017.54 793.82C1001.84 648.744 869.344 478.743 693.918 336.207C661.886 367.173 630.618 398.823 600.635 430.859C586.43 446.037 572.518 461.307 558.943 476.63C682.323 618.485 776.41 764.179 800.634 892.37C809.065 913.902 833.312 921.238 854.075 925.965L829.968 887.464L895.332 930.904C912.941 931.246 932.082 929.68 947.668 926.731ZM175.683 931.916C181.736 905.06 187.577 878.202 206.955 851.327C207.335 878.327 211.393 903.612 223.447 925.166C241.092 920.015 266.244 910.57 269.901 893.125C297.627 744.08 419.589 571.126 572.308 407.946C707.844 263.128 867.943 126.845 1010.43 25.634C841.686 49.1992 625.504 150.159 442.248 284.571C384.245 327.115 329.599 373.011 280.568 420.619C294.598 418.419 308.969 417.416 322.89 417.126L201.095 505.21C117.832 603.155 62.3027 704.147 52.7135 795.193C50.8302 813.057 49.9225 839.281 54.1487 862.697C58.3748 886.115 67.739 905.214 81.8651 913.806C99.9809 924.822 132.025 931.52 164.451 932.017C168.195 932.079 171.941 932.045 175.683 931.916ZM377.221 288.781C390.976 278.048 404.903 267.508 418.998 257.163C445.602 237.65 472.787 218.833 500.522 200.734C452.662 171.934 403.889 145.77 355.412 122.873C315.112 118.463 274.824 113.968 234.546 109.39C246.08 99.0709 259.377 92.1277 274.028 87.4325C197.792 57.1111 124.028 36.0689 57.6369 26.9891C160.246 99.4353 272 189.967 377.221 288.781Z" fill="#81C784"/>
<path d="M87.24 916.75H143.7C148.56 916.75 152.5 912.81 152.5 907.95V907.94C152.5 903.08 148.56 899.14 143.7 899.14H87.24C82.3799 899.14 78.44 903.08 78.44 907.94V907.95C78.44 912.81 82.3799 916.75 87.24 916.75Z" fill="#7986BF"/>
<path d="M168.46 916.75H960.8C965.66 916.75 969.6 912.81 969.6 907.95V907.94C969.6 903.08 965.66 899.14 960.8 899.14H168.46C163.6 899.14 159.66 903.08 159.66 907.94V907.95C159.66 912.81 163.6 916.75 168.46 916.75Z" fill="#7986BF"/>
<path d="M212.26 139.18H258.36C258.965 139.18 259.565 139.299 260.124 139.531C260.684 139.763 261.192 140.102 261.62 140.53C262.048 140.958 262.387 141.467 262.619 142.026C262.851 142.585 262.97 143.185 262.97 143.79V254.25H212.26V139.18Z" fill="#6675AD"/>
<path d="M209 139.18H255.1V254.25H204.35V143.79C204.35 143.185 204.469 142.585 204.701 142.026C204.933 141.467 205.272 140.958 205.7 140.53C206.128 140.102 206.637 139.763 207.196 139.531C207.755 139.299 208.355 139.18 208.96 139.18H209Z" fill="#7986BF"/>
<path d="M229.01 186.89C235.737 186.89 241.19 181.437 241.19 174.71C241.19 167.983 235.737 162.53 229.01 162.53C222.283 162.53 216.83 167.983 216.83 174.71C216.83 181.437 222.283 186.89 229.01 186.89Z" fill="#6675AD"/>
<path d="M229.01 180.24C232.064 180.24 234.54 177.764 234.54 174.71C234.54 171.656 232.064 169.18 229.01 169.18C225.956 169.18 223.48 171.656 223.48 174.71C223.48 177.764 225.956 180.24 229.01 180.24Z" fill="#F3F4FE"/>
<path d="M229.01 251.08C239.945 251.08 248.81 242.215 248.81 231.28C248.81 220.345 239.945 211.48 229.01 211.48C218.075 211.48 209.21 220.345 209.21 231.28C209.21 242.215 218.075 251.08 229.01 251.08Z" fill="#6675AD"/>
<path d="M229.01 240.26C233.97 240.26 237.99 236.24 237.99 231.28C237.99 226.32 233.97 222.3 229.01 222.3C224.05 222.3 220.03 226.32 220.03 231.28C220.03 236.24 224.05 240.26 229.01 240.26Z" fill="#F3F4FE"/>
<path d="M311.64 139.18H357.74C358.345 139.18 358.945 139.299 359.504 139.531C360.063 139.763 360.572 140.102 361 140.53C361.428 140.958 361.767 141.467 361.999 142.026C362.231 142.585 362.35 143.185 362.35 143.79V254.25H311.64V139.18Z" fill="#6675AD"/>
<path d="M308.34 139.18H354.44V254.25H303.73V143.79C303.73 143.185 303.849 142.585 304.081 142.026C304.313 141.467 304.652 140.958 305.08 140.53C305.508 140.102 306.017 139.763 306.576 139.531C307.135 139.299 307.735 139.18 308.34 139.18Z" fill="#7986BF"/>
<path d="M328.39 186.89C335.117 186.89 340.57 181.437 340.57 174.71C340.57 167.983 335.117 162.53 328.39 162.53C321.663 162.53 316.21 167.983 316.21 174.71C316.21 181.437 321.663 186.89 328.39 186.89Z" fill="#6675AD"/>
<path d="M328.39 180.24C331.444 180.24 333.92 177.764 333.92 174.71C333.92 171.656 331.444 169.18 328.39 169.18C325.336 169.18 322.86 171.656 322.86 174.71C322.86 177.764 325.336 180.24 328.39 180.24Z" fill="#F3F4FE"/>
<path d="M328.39 251.08C339.325 251.08 348.19 242.215 348.19 231.28C348.19 220.345 339.325 211.48 328.39 211.48C317.455 211.48 308.59 220.345 308.59 231.28C308.59 242.215 317.455 251.08 328.39 251.08Z" fill="#6675AD"/>
<path d="M328.39 240.26C333.35 240.26 337.37 236.24 337.37 231.28C337.37 226.32 333.35 222.3 328.39 222.3C323.43 222.3 319.41 226.32 319.41 231.28C319.41 236.24 323.43 240.26 328.39 240.26Z" fill="#F3F4FE"/>
<path d="M133.15 277.31H432.68L412.96 254.25H152.88L133.15 277.31Z" fill="#D2D6FA"/>
<path d="M376.58 277.31V308.27L355.56 323.06V277.31H376.58Z" fill="#D2D6FA"/>
<path d="M215.38 277.31V323.06L194.36 308.27V277.31H215.38Z" fill="#D2D6FA"/>
<path d="M194.36 277.31H215.38V286.88H194.36V277.31Z" fill="#969ECC"/>
<path d="M355.56 277.31H376.58V286.88H355.56V277.31Z" fill="#969ECC"/>
<path d="M649.96 272.65H764.07V400.79H649.96V272.65Z" fill="#D2D6FA"/>
<path d="M659.95 283.86H754.09V389.57H659.95V283.86Z" fill="#F3F4FE"/>
<path d="M687.86 318.39L713.11 364.98L668.13 367.97L687.86 318.39Z" fill="#D2D6FA"/>
<path d="M743.01 296.1L725.41 327.97L707.01 303.05L743.01 296.1Z" fill="#D2D6FA"/>
<path d="M740.25 343.18L736.56 365.18L720.86 354.52L740.25 343.18Z" fill="#D2D6FA"/>
<path d="M526.28 289.15C541.015 289.15 552.96 277.205 552.96 262.47C552.96 247.735 541.015 235.79 526.28 235.79C511.545 235.79 499.6 247.735 499.6 262.47C499.6 277.205 511.545 289.15 526.28 289.15Z" fill="#332D52"/>
<path d="M529.534 414.119C543.525 403.376 546.158 383.325 535.414 369.334C524.671 355.343 504.62 352.71 490.629 363.454L409.514 425.74C395.523 436.483 392.891 456.535 403.634 470.526C414.378 484.516 434.429 487.149 448.42 476.406L529.534 414.119Z" fill="#FAEEDE"/>
<path d="M429.07 483.01C448.002 483.01 463.35 467.662 463.35 448.73C463.35 429.798 448.002 414.45 429.07 414.45C410.138 414.45 394.79 429.798 394.79 448.73C394.79 467.662 410.138 483.01 429.07 483.01Z" fill="#F2E6D7"/>
<path d="M360.575 323.494L360.566 323.499C347.682 330.289 342.742 346.238 349.532 359.122L402.407 459.452C409.197 472.336 425.146 477.276 438.03 470.486L438.039 470.481C450.923 463.691 455.863 447.742 449.073 434.858L396.198 334.528C389.408 321.644 373.459 316.704 360.575 323.494Z" fill="#EF948C"/>
<path d="M360.528 367.621C373.766 373.366 389.155 367.294 394.899 354.058C400.643 340.823 394.568 325.435 381.329 319.69L360.368 310.593C347.13 304.848 331.741 310.921 325.997 324.156C320.253 337.392 326.329 352.779 339.567 358.524L360.528 367.621Z" fill="#EF948C"/>
<path d="M369.171 335.009C373.958 337.087 379.524 334.89 381.602 330.102C383.679 325.315 381.483 319.749 376.695 317.672L328.159 296.608C323.371 294.53 317.805 296.727 315.728 301.514C313.65 306.302 315.847 311.867 320.634 313.945L369.171 335.009Z" fill="#EF948C"/>
<path d="M372.586 333.312C375.473 337.66 381.338 338.844 385.686 335.956C390.034 333.069 391.217 327.203 388.33 322.856L372.048 298.34C369.16 293.993 363.295 292.809 358.948 295.696C354.6 298.584 353.416 304.449 356.304 308.797L372.586 333.312Z" fill="#EA8681"/>
<path d="M374.79 352.91C385.074 352.91 393.41 344.574 393.41 334.29C393.41 324.006 385.074 315.67 374.79 315.67C364.506 315.67 356.17 324.006 356.17 334.29C356.17 344.574 364.506 352.91 374.79 352.91Z" fill="#EA8681"/>
<path d="M529.534 414.119C543.525 403.376 546.158 383.325 535.414 369.334C524.671 355.343 504.62 352.71 490.629 363.454L409.514 425.74C395.523 436.483 392.891 456.535 403.634 470.526C414.378 484.516 434.429 487.149 448.42 476.406L529.534 414.119Z" fill="#332D52"/>
<path d="M429.07 483.01C448.002 483.01 463.35 467.662 463.35 448.73C463.35 429.798 448.002 414.45 429.07 414.45C410.138 414.45 394.79 429.798 394.79 448.73C394.79 467.662 410.138 483.01 429.07 483.01Z" fill="#FAEEDE"/>
<path d="M360.575 323.494L360.566 323.499C347.682 330.289 342.742 346.238 349.532 359.122L402.407 459.452C409.197 472.336 425.146 477.276 438.03 470.486L438.039 470.481C450.923 463.691 455.863 447.742 449.073 434.858L396.198 334.528C389.408 321.644 373.459 316.704 360.575 323.494Z" fill="#EF948C"/>
<path d="M360.528 367.621C373.766 373.366 389.155 367.294 394.899 354.058C400.643 340.823 394.568 325.435 381.329 319.69L360.368 310.593C347.13 304.848 331.741 310.921 325.997 324.156C320.253 337.392 326.329 352.779 339.567 358.524L360.528 367.621Z" fill="#EF948C"/>
<path d="M326 324.13C326.936 321.979 328.153 319.961 329.62 318.13C327.753 324.262 328.21 330.868 330.906 336.684C333.601 342.501 338.344 347.12 344.23 349.66L346.78 350.76L356.71 355.07L363.95 368.8L407.07 450.63C409.11 454.503 412.082 457.808 415.717 460.247C419.353 462.686 423.538 464.182 427.896 464.601C432.253 465.019 436.647 464.347 440.68 462.645C444.713 460.943 448.26 458.264 451 454.85C449.478 459.851 446.505 464.288 442.457 467.596C438.409 470.905 433.47 472.936 428.266 473.432C423.061 473.928 417.827 472.867 413.227 470.383C408.627 467.899 404.869 464.104 402.43 459.48L352.08 363.92L339.59 358.5C336.437 357.14 333.584 355.171 331.193 352.707C328.803 350.242 326.922 347.329 325.66 344.136C324.397 340.943 323.777 337.532 323.836 334.099C323.894 330.666 324.63 327.278 326 324.13Z" fill="#EA8681"/>
<path d="M369.171 335.009C373.958 337.087 379.524 334.89 381.602 330.102C383.679 325.315 381.483 319.749 376.695 317.672L328.159 296.608C323.371 294.53 317.805 296.727 315.728 301.514C313.65 306.302 315.847 311.867 320.634 313.945L369.171 335.009Z" fill="#EF948C"/>
<path d="M372.586 333.312C375.473 337.66 381.338 338.844 385.686 335.956C390.034 333.069 391.217 327.203 388.33 322.856L372.048 298.34C369.16 293.993 363.295 292.809 358.948 295.696C354.6 298.584 353.416 304.449 356.304 308.797L372.586 333.312Z" fill="#EF948C"/>
<path d="M374.79 352.91C385.074 352.91 393.41 344.574 393.41 334.29C393.41 324.006 385.074 315.67 374.79 315.67C364.506 315.67 356.17 324.006 356.17 334.29C356.17 344.574 364.506 352.91 374.79 352.91Z" fill="#EF948C"/>
<path d="M528.07 447.37C555.717 447.37 578.13 424.957 578.13 397.31C578.13 369.663 555.717 347.25 528.07 347.25C500.423 347.25 478.01 369.663 478.01 397.31C478.01 424.957 500.423 447.37 528.07 447.37Z" fill="#332D52"/>
<path d="M508.797 413.219L512.416 572.718C513.073 601.65 537.059 624.572 565.991 623.916L612.17 622.868C641.102 622.211 664.024 598.225 663.367 569.292L659.748 409.793C659.091 380.861 635.105 357.939 606.172 358.596L559.994 359.644C531.062 360.3 508.14 384.287 508.797 413.219Z" fill="#332D52"/>
<path d="M487.592 395.102C487.296 380.277 492.901 365.94 503.174 355.248C513.448 344.555 527.548 338.381 542.374 338.084L626.504 336.402C641.33 336.105 655.666 341.71 666.359 351.984C677.052 362.257 683.226 376.358 683.522 391.184C683.764 403.295 681.619 415.336 677.207 426.619C672.796 437.901 666.206 448.205 657.813 456.94C649.42 465.676 639.388 472.673 628.291 477.532C617.194 482.39 605.248 485.016 593.137 485.258L581.657 485.488C557.197 485.974 533.546 476.725 515.906 459.775C498.266 442.825 488.081 419.561 487.592 395.102Z" fill="#332D52"/>
<path d="M591.57 484.27H591.66C616.109 483.714 639.336 473.471 656.234 455.793C673.132 438.115 682.317 414.449 681.77 390C681.434 375.178 675.225 361.097 664.507 350.854C653.789 340.611 639.442 335.045 624.62 335.38L540.51 337.29C536.667 337.374 532.843 337.857 529.1 338.73L609.84 336.89H611.14C625.734 336.896 639.748 342.61 650.186 352.811C660.623 363.011 666.658 376.89 667 391.48C667.494 413.385 660.176 434.75 646.356 451.752C632.535 468.753 613.114 480.281 591.57 484.27Z" fill="#332D52"/>
<path d="M554.35 296.43L555.43 344.07C555.582 351.204 558.525 357.994 563.627 362.982C568.73 367.971 575.584 370.759 582.72 370.75H583.34C586.925 370.668 590.459 369.881 593.739 368.433C597.019 366.984 599.982 364.904 602.458 362.31C604.934 359.716 606.875 356.66 608.169 353.316C609.463 349.971 610.085 346.405 610 342.82L609.64 326.5L608.92 295.19C608.761 288.058 605.815 281.273 600.714 276.286C595.614 271.3 588.763 268.508 581.63 268.51H581C573.765 268.683 566.895 271.721 561.898 276.956C556.901 282.191 554.186 289.195 554.35 296.43Z" fill="#EF948C"/>
<path d="M381.256 583.153L381.351 587.342C381.862 609.847 400.52 627.677 423.026 627.167L623.814 622.61C646.319 622.1 664.149 603.441 663.639 580.936L663.544 576.747C663.033 554.242 644.375 536.412 621.869 536.922L421.081 541.479C398.576 541.99 380.746 560.648 381.256 583.153Z" fill="#332D52"/>
<path d="M578.13 582.9V838.79H663.85V582.9C663.85 571.533 659.334 560.631 651.297 552.593C643.259 544.556 632.357 540.04 620.99 540.04C609.623 540.04 598.721 544.556 590.683 552.593C582.646 560.631 578.13 571.533 578.13 582.9Z" fill="#666DA2"/>
<path d="M578.13 582.9V838.79H600.42V621.84C600.423 614.401 602.362 607.092 606.045 600.629C609.729 594.166 615.031 588.774 621.43 584.98C627.829 581.187 635.104 579.124 642.542 578.995C649.979 578.865 657.323 580.672 663.85 584.24V582.9C663.85 571.533 659.334 560.631 651.297 552.593C643.259 544.556 632.357 540.04 620.99 540.04C609.623 540.04 598.721 544.556 590.683 552.593C582.646 560.631 578.13 571.533 578.13 582.9Z" fill="#555A8B"/>
<path d="M578.13 801.93V838.79H663.85V815.39L578.13 801.93Z" fill="#141334"/>
<path d="M294.71 810.08L371.12 840.71L379.75 818.34L463.9 600.34C465.926 595.087 466.898 589.487 466.76 583.858C466.622 578.23 465.376 572.684 463.095 567.536C460.813 562.389 457.54 557.742 453.463 553.86C449.385 549.977 444.583 546.936 439.33 544.91C434.077 542.884 428.477 541.912 422.848 542.05C417.22 542.188 411.674 543.434 406.526 545.715C401.379 547.997 396.732 551.27 392.85 555.347C388.967 559.425 385.926 564.227 383.9 569.48L305.05 773.86L294.74 800.53L294.71 810.08Z" fill="#332D52"/>
<path d="M346.365 875.195L286.389 852.04L299.074 819.184L359.05 842.338L346.365 875.195Z" fill="#EA8681"/>
<path d="M653.14 878.39H588.85V845.47H653.14V878.39Z" fill="#EF948C"/>
<path d="M554.35 296.43L555.43 344.07C555.482 346.569 555.879 349.049 556.61 351.44H558.61C568.456 351.445 578.172 349.195 587.012 344.861C595.853 340.527 603.583 334.226 609.61 326.44L608.89 295.13C608.731 287.998 605.785 281.213 600.684 276.226C595.584 271.24 588.733 268.448 581.6 268.45H581C577.412 268.536 573.877 269.327 570.596 270.78C567.314 272.233 564.351 274.318 561.876 276.917C559.401 279.515 557.463 282.576 556.171 285.924C554.88 289.273 554.261 292.842 554.35 296.43Z" fill="#EA8681"/>
<path d="M507 274.11C507 290.616 513.323 306.495 524.668 318.483C536.013 330.472 551.519 337.66 568 338.57C569.15 338.63 570.3 338.66 571.47 338.66C580.014 338.766 588.494 337.175 596.418 333.979C604.342 330.783 611.553 326.046 617.632 320.042C623.712 314.038 628.538 306.886 631.833 299.003C635.127 291.119 636.823 282.659 636.823 274.115C636.823 265.571 635.127 257.111 631.833 249.227C628.538 241.344 623.712 234.192 617.632 228.188C611.553 222.184 604.342 217.447 596.418 214.251C588.494 211.055 580.014 209.464 571.47 209.57C570.3 209.57 569.15 209.57 568 209.66C551.52 210.568 536.014 217.754 524.669 229.741C513.323 241.728 507.001 257.605 507 274.11Z" fill="#EF948C"/>
<path d="M544.91 291.53C544.912 293.422 545.288 295.296 546.015 297.043C546.743 298.789 547.808 300.376 549.15 301.71C549.48 302.04 549.83 302.35 550.15 302.64C552.732 304.766 555.976 305.923 559.32 305.91H559.91C563.524 305.894 567 304.523 569.652 302.068C572.303 299.613 573.937 296.252 574.23 292.65C574.23 292.25 574.23 291.85 574.23 291.45C574.233 291.079 574.162 290.711 574.022 290.367C573.881 290.024 573.673 289.712 573.41 289.45C572.877 288.926 572.158 288.634 571.41 288.64L547.59 288.7C546.862 288.729 546.175 289.041 545.674 289.569C545.173 290.098 544.899 290.802 544.91 291.53Z" fill="#962F4A"/>
<path d="M559.64 303.69C559.642 304.435 559.716 305.179 559.86 305.91H559.94C563.555 305.899 567.034 304.529 569.687 302.073C572.339 299.617 573.971 296.254 574.26 292.65C573.224 292.347 572.149 292.195 571.07 292.2C569.565 292.204 568.076 292.504 566.687 293.084C565.298 293.663 564.037 294.511 562.975 295.578C561.914 296.645 561.073 297.91 560.501 299.302C559.929 300.694 559.636 302.185 559.64 303.69Z" fill="#E1617F"/>
<path d="M548.22 288.73C548.34 291.56 552.71 293.81 558.07 293.8C563.43 293.79 567.78 291.51 567.88 288.68L548.22 288.73Z" fill="white"/>
<path d="M507 274.11C507 290.616 513.323 306.495 524.668 318.483C536.013 330.472 551.519 337.66 568 338.57C569.78 338.47 571.55 338.31 573.3 338.06C557.846 335.938 543.684 328.292 533.431 316.536C523.179 304.78 517.531 289.709 517.531 274.11C517.531 258.511 523.179 243.44 533.431 231.684C543.684 219.928 557.846 212.282 573.3 210.16C571.55 209.92 569.78 209.75 568 209.66C551.52 210.568 536.014 217.754 524.669 229.741C513.323 241.728 507.001 257.605 507 274.11Z" fill="#EA8681"/>
<path d="M624.8 388.92V389.59C625.43 410.91 639.65 427.81 657.01 428.07H658.13C676.19 427.6 690.53 409.29 690.13 387.19C689.93 374.95 687.33 365.05 680.13 357.9C675.824 353.93 670.705 350.944 665.13 349.15C660.576 347.801 655.747 347.677 651.13 348.79C635.89 352.47 624.48 369.18 624.8 388.92Z" fill="#332D52"/>
<path d="M623.51 388.09V388.77C624.06 404.16 631.64 417.32 642.4 423.77C636.789 416.24 633.645 407.158 633.4 397.77C633.4 397.54 633.4 397.32 633.4 397.09C632.97 377.03 644.64 360.09 660.4 356.45C662.308 355.996 664.259 355.748 666.22 355.71C669.153 355.652 672.077 356.046 674.89 356.88C677.346 357.611 679.698 358.653 681.89 359.98C677.69 354.253 671.774 350.014 665 347.88C660.29 346.474 655.295 346.325 650.51 347.45C634.74 351.12 623.07 368 623.51 388.09Z" fill="#332D52"/>
<path d="M694.856 377.315C687.421 361.318 668.426 354.378 652.429 361.814C636.433 369.249 629.493 388.244 636.929 404.241L680.036 496.982C687.472 512.978 706.467 519.918 722.463 512.483C738.46 505.047 745.4 486.052 737.964 470.056L694.856 377.315Z" fill="#332D52"/>
<path d="M706.72 517.23C725.652 517.23 741 501.882 741 482.95C741 464.018 725.652 448.67 706.72 448.67C687.788 448.67 672.44 464.018 672.44 482.95C672.44 501.882 687.788 517.23 706.72 517.23Z" fill="#F2E6D7"/>
<path d="M694.856 377.315C687.421 361.318 668.426 354.378 652.429 361.814C636.433 369.249 629.493 388.244 636.929 404.241L680.036 496.982C687.472 512.978 706.467 519.918 722.463 512.483C738.46 505.047 745.4 486.052 737.964 470.056L694.856 377.315Z" fill="#332D52"/>
<path d="M635.71 380.36C638.78 375.515 643.097 371.585 648.21 368.984C653.323 366.384 659.041 365.208 664.765 365.58C670.489 365.953 676.007 367.86 680.739 371.101C685.472 374.342 689.244 378.798 691.66 384L734.76 476.74C738.255 484.238 738.7 492.8 736 500.62C739.247 495.502 740.98 489.571 741 483.51C740.996 478.868 739.972 474.283 738 470.08L694.9 377.34C692.223 371.564 687.881 366.72 682.43 363.43C676.98 360.14 670.671 358.554 664.312 358.877C657.954 359.199 651.838 361.415 646.748 365.24C641.659 369.064 637.829 374.323 635.75 380.34L635.71 380.36Z" fill="#FFF7EE"/>
<path d="M706.72 517.23C725.652 517.23 741 501.882 741 482.95C741 464.018 725.652 448.67 706.72 448.67C687.788 448.67 672.44 464.018 672.44 482.95C672.44 501.882 687.788 517.23 706.72 517.23Z" fill="#F2E6D7"/>
<path d="M521.55 259.31H617.87C634.947 259.31 648.79 245.467 648.79 228.39C648.79 211.313 634.947 197.47 617.87 197.47H521.55C504.473 197.47 490.63 211.313 490.63 228.39C490.63 245.467 504.473 259.31 521.55 259.31Z" fill="#332D52"/>
<path d="M630.74 289.15C645.475 289.15 657.42 277.205 657.42 262.47C657.42 247.735 645.475 235.79 630.74 235.79C616.005 235.79 604.06 247.735 604.06 262.47C604.06 277.205 616.005 289.15 630.74 289.15Z" fill="#332D52"/>
<path d="M635.51 289.15C647.611 289.15 657.42 279.341 657.42 267.24C657.42 255.139 647.611 245.33 635.51 245.33C623.409 245.33 613.6 255.139 613.6 267.24C613.6 279.341 623.409 289.15 635.51 289.15Z" fill="#49466B"/>
<path d="M636.03 295.51C647.843 295.51 657.42 285.933 657.42 274.12C657.42 262.307 647.843 252.73 636.03 252.73C624.217 252.73 614.64 262.307 614.64 274.12C614.64 285.933 624.217 295.51 636.03 295.51Z" fill="#EF948C"/>
<path d="M634.35 280.78V267.44C634.351 267.107 634.43 266.778 634.582 266.482C634.734 266.185 634.955 265.929 635.225 265.733C635.495 265.538 635.808 265.41 636.137 265.359C636.467 265.308 636.803 265.336 637.12 265.44C638.96 266.03 640.565 267.189 641.704 268.749C642.843 270.31 643.457 272.193 643.457 274.125C643.457 276.057 642.843 277.94 641.704 279.501C640.565 281.061 638.96 282.22 637.12 282.81C636.801 282.913 636.462 282.938 636.131 282.885C635.8 282.831 635.487 282.7 635.217 282.502C634.946 282.304 634.727 282.045 634.576 281.745C634.426 281.446 634.348 281.115 634.35 280.78Z" fill="#EA8681"/>
<path d="M526.28 259.86C548.852 259.86 567.15 241.562 567.15 218.99C567.15 196.418 548.852 178.12 526.28 178.12C503.708 178.12 485.41 196.418 485.41 218.99C485.41 241.562 503.708 259.86 526.28 259.86Z" fill="#332D52"/>
<path d="M489.13 219C489.126 223.837 490.147 228.62 492.127 233.033C494.107 237.446 497 241.389 500.615 244.602C504.231 247.815 508.487 250.225 513.102 251.673C517.717 253.12 522.587 253.573 527.39 253C519.079 252.01 511.419 248.007 505.861 241.748C500.304 235.489 497.235 227.41 497.235 219.04C497.235 210.67 500.304 202.591 505.861 196.332C511.419 190.073 519.079 186.07 527.39 185.08C522.587 184.507 517.717 184.96 513.102 186.407C508.487 187.855 504.231 190.265 500.615 193.478C497 196.691 494.107 200.634 492.127 205.047C490.147 209.46 489.126 214.243 489.13 219.08V219Z" fill="#49466B"/>
<path d="M558.64 222.39C574.17 222.39 586.76 209.8 586.76 194.27C586.76 178.74 574.17 166.15 558.64 166.15C543.11 166.15 530.52 178.74 530.52 194.27C530.52 209.8 543.11 222.39 558.64 222.39Z" fill="#332D52"/>
<path d="M527.39 269.06C527.461 271.024 528.292 272.884 529.706 274.248C531.121 275.612 533.01 276.375 534.975 276.375C536.94 276.375 538.829 275.612 540.244 274.248C541.658 272.884 542.489 271.024 542.56 269.06C542.562 268.467 542.492 267.876 542.35 267.3C541.956 268.96 541.014 270.438 539.675 271.496C538.337 272.554 536.681 273.129 534.975 273.129C533.269 273.129 531.613 272.554 530.275 271.496C528.936 270.438 527.994 268.96 527.6 267.3C527.458 267.876 527.388 268.467 527.39 269.06Z" fill="#332D52"/>
<path d="M569.06 269.06C569.06 271.073 569.86 273.004 571.283 274.427C572.706 275.85 574.637 276.65 576.65 276.65C578.663 276.65 580.594 275.85 582.017 274.427C583.44 273.004 584.24 271.073 584.24 269.06C584.242 268.467 584.172 267.876 584.03 267.3C583.632 268.957 582.687 270.433 581.348 271.488C580.01 272.543 578.355 273.117 576.65 273.117C574.945 273.117 573.29 272.543 571.952 271.488C570.613 270.433 569.668 268.957 569.27 267.3C569.128 267.876 569.058 268.467 569.06 269.06Z" fill="#332D52"/>
<path d="M578.14 894.74H659.82C659.82 883.909 655.517 873.521 647.858 865.862C640.199 858.203 629.811 853.9 618.98 853.9C608.149 853.9 597.761 858.203 590.102 865.862C582.443 873.521 578.14 883.909 578.14 894.74Z" fill="#332D52"/>
<path d="M578.14 894.74H597C597.005 885.849 599.797 877.183 604.985 869.963C610.173 862.743 617.495 857.331 625.92 854.49C620.057 853.491 614.047 853.783 608.309 855.344C602.57 856.906 597.241 859.699 592.693 863.531C588.144 867.363 584.486 872.14 581.973 877.53C579.459 882.92 578.152 888.793 578.14 894.74Z" fill="#49466B"/>
<path d="M566.83 887.35C566.834 888.149 566.914 888.946 567.07 889.73C567.147 890.111 567.243 890.489 567.36 890.86C567.472 891.227 567.606 891.588 567.76 891.94C568.199 892.992 568.792 893.973 569.52 894.85C569.76 895.14 570.01 895.41 570.28 895.68C570.545 895.946 570.826 896.196 571.12 896.43C573.228 898.171 575.876 899.122 578.61 899.12H665.77C668.088 899.125 670.315 898.223 671.976 896.606C673.637 894.99 674.599 892.787 674.657 890.47C674.714 888.153 673.862 885.906 672.284 884.209C670.705 882.512 668.525 881.5 666.21 881.39L600.87 877L579.18 875.56C577.228 875.46 575.281 875.852 573.52 876.7C573.008 876.95 572.514 877.234 572.04 877.55C571.578 877.858 571.134 878.192 570.71 878.55C570.29 878.93 569.899 879.341 569.54 879.78C569.3 880.07 569.07 880.37 568.86 880.68C568.104 881.795 567.549 883.034 567.22 884.34C567.119 884.715 567.039 885.096 566.98 885.48C566.881 886.098 566.831 886.724 566.83 887.35Z" fill="#332D52"/>
<path d="M566.83 887.35C566.834 888.149 566.914 888.946 567.07 889.73C567.142 890.113 567.239 890.49 567.36 890.86C567.468 891.229 567.602 891.59 567.76 891.94C568.199 892.992 568.792 893.973 569.52 894.85C569.76 895.14 570.01 895.41 570.28 895.68C570.545 895.946 570.826 896.196 571.12 896.43C573.228 898.171 575.876 899.122 578.61 899.12H606.56C603.945 899.122 601.404 898.254 599.337 896.653C597.27 895.052 595.794 892.809 595.142 890.277C594.49 887.745 594.699 885.068 595.736 882.668C596.773 880.268 598.579 878.281 600.87 877.02L579.18 875.58C577.228 875.48 575.281 875.872 573.52 876.72C572.498 877.213 571.552 877.85 570.71 878.61C570.29 878.99 569.899 879.401 569.54 879.84C569.296 880.126 569.069 880.427 568.86 880.74C568.104 881.855 567.549 883.094 567.22 884.4C567.119 884.775 567.039 885.156 566.98 885.54C566.884 886.139 566.834 886.744 566.83 887.35Z" fill="#49466B"/>
<path d="M349.727 885.495L284.1 857.908L294.501 833.165L349.462 856.269C352.291 857.458 354.531 859.722 355.691 862.563C356.85 865.404 356.834 868.589 355.645 871.418L349.727 885.495Z" fill="#49466B"/>
<path d="M234.51 845.87L309.81 877.52C314.007 867.535 314.066 856.291 309.973 846.262C305.88 836.234 297.97 828.242 287.985 824.045C278 819.848 266.756 819.789 256.727 823.882C246.699 827.975 238.707 835.885 234.51 845.87Z" fill="#332D52"/>
<path d="M234.51 845.87L255.67 854.76C259.09 846.619 265.057 839.806 272.676 835.342C280.295 830.878 289.156 829.004 297.93 830C293.007 825.999 287.219 823.2 281.026 821.824C274.833 820.448 268.405 820.534 262.251 822.074C256.097 823.614 250.386 826.566 245.571 830.696C240.756 834.827 236.969 840.022 234.51 845.87Z" fill="#49466B"/>
<path d="M354.71 881.91L246.54 830.14C245.102 829.452 243.538 829.064 241.945 828.998C240.352 828.932 238.763 829.19 237.272 829.756C235.782 830.323 234.422 831.186 233.275 832.294C232.128 833.401 231.218 834.73 230.6 836.2C230 837.626 229.686 839.157 229.677 840.704C229.668 842.251 229.964 843.785 230.548 845.218C231.133 846.651 231.993 847.955 233.081 849.055C234.169 850.155 235.464 851.03 236.89 851.63L347.44 898.1C349.61 899.011 352.052 899.023 354.231 898.134C356.409 897.245 358.146 895.528 359.06 893.36C359.944 891.258 359.985 888.897 359.175 886.765C358.365 884.633 356.766 882.895 354.71 881.91Z" fill="#332D52"/>
<path d="M230.6 836.21C229.39 839.089 229.374 842.331 230.553 845.222C231.732 848.114 234.012 850.418 236.89 851.63L262.65 862.46C260.178 861.42 258.135 859.569 256.859 857.211C255.582 854.853 255.148 852.13 255.628 849.491C256.108 846.853 257.474 844.458 259.5 842.701C261.526 840.945 264.09 839.932 266.77 839.83L246.55 830.14C245.11 829.451 243.546 829.061 241.951 828.995C240.357 828.929 238.765 829.188 237.274 829.756C235.782 830.323 234.421 831.188 233.274 832.298C232.127 833.407 231.217 834.738 230.6 836.21Z" fill="#49466B"/>
<path d="M706.73 531.19L713.48 550.43L725.35 584.32L835.69 899.17H860.3L775.72 584.32L766.62 550.43L761.45 531.19H706.73Z" fill="#441242"/>
<path d="M713.48 550.43L725.35 584.32H775.72L766.62 550.43H713.48Z" fill="#2F073A"/>
<path d="M354.26 531.19L347.51 550.43L335.64 584.32L225.3 899.17H200.69L285.27 584.32L294.37 550.43L299.54 531.19H354.26Z" fill="#441242"/>
<path d="M347.51 550.43L335.64 584.32H285.27L294.37 550.43H347.51Z" fill="#2F073A"/>
<path d="M830.51 565.08H244.34C240.452 565.08 236.723 563.535 233.974 560.786C231.225 558.037 229.68 554.308 229.68 550.42V531.2H845.18V550.41C845.181 552.337 844.803 554.245 844.066 556.026C843.329 557.806 842.249 559.424 840.886 560.786C839.524 562.149 837.906 563.229 836.126 563.966C834.345 564.703 832.437 565.081 830.51 565.08Z" fill="#441242"/>
<path d="M169.2 540.24H905.65C913.073 540.24 919.09 534.223 919.09 526.8C919.09 519.377 913.073 513.36 905.65 513.36H169.2C161.777 513.36 155.76 519.377 155.76 526.8C155.76 534.223 161.777 540.24 169.2 540.24Z" fill="#D8BA9F"/>
<path d="M155.76 526.8C155.763 530.364 157.18 533.781 159.699 536.301C162.219 538.821 165.636 540.237 169.2 540.24H905.65C909.215 540.24 912.633 538.824 915.154 536.304C917.674 533.783 919.09 530.364 919.09 526.8C919.094 525.213 918.813 523.638 918.26 522.15C917.309 524.728 915.59 526.952 913.335 528.522C911.08 530.092 908.398 530.932 905.65 530.93H169.2C167.435 530.932 165.687 530.585 164.056 529.909C162.426 529.233 160.945 528.241 159.7 526.99C158.321 525.626 157.262 523.973 156.6 522.15C156.044 523.637 155.76 525.212 155.76 526.8Z" fill="#C89F87"/>
<path d="M822.88 557.28C825.625 557.28 827.85 555.055 827.85 552.31C827.85 549.565 825.625 547.34 822.88 547.34C820.135 547.34 817.91 549.565 817.91 552.31C817.91 555.055 820.135 557.28 822.88 557.28Z" fill="#D8BA9F"/>
<path d="M821.8 558.7C825.147 558.7 827.86 555.987 827.86 552.64C827.86 549.293 825.147 546.58 821.8 546.58C818.453 546.58 815.74 549.293 815.74 552.64C815.74 555.987 818.453 558.7 821.8 558.7Z" fill="#2F073A"/>
<path d="M822.88 557.28C825.625 557.28 827.85 555.055 827.85 552.31C827.85 549.565 825.625 547.34 822.88 547.34C820.135 547.34 817.91 549.565 817.91 552.31C817.91 555.055 820.135 557.28 822.88 557.28Z" fill="#D8BA9F"/>
<path d="M817.91 552.31C817.91 553.636 818.437 554.908 819.374 555.846C820.312 556.783 821.584 557.31 822.91 557.31H823.43C822.245 557.133 821.164 556.536 820.382 555.629C819.6 554.721 819.17 553.563 819.17 552.365C819.17 551.167 819.6 550.009 820.382 549.101C821.164 548.194 822.245 547.597 823.43 547.42C823.257 547.41 823.083 547.41 822.91 547.42C821.603 547.42 820.347 547.931 819.413 548.845C818.478 549.759 817.939 551.003 817.91 552.31Z" fill="#C89F87"/>
<path d="M822.88 555C823.132 555.08 823.395 555.121 823.66 555.12C824.413 555.12 825.136 554.821 825.668 554.288C826.201 553.756 826.5 553.033 826.5 552.28C826.5 551.527 826.201 550.804 825.668 550.272C825.136 549.739 824.413 549.44 823.66 549.44C823.395 549.439 823.132 549.48 822.88 549.56C823.476 549.723 824.002 550.078 824.378 550.569C824.753 551.061 824.956 551.662 824.956 552.28C824.956 552.898 824.753 553.499 824.378 553.991C824.002 554.482 823.476 554.837 822.88 555Z" fill="#F5EAE4"/>
<path d="M795.08 557.28C797.825 557.28 800.05 555.055 800.05 552.31C800.05 549.565 797.825 547.34 795.08 547.34C792.335 547.34 790.11 549.565 790.11 552.31C790.11 555.055 792.335 557.28 795.08 557.28Z" fill="#D8BA9F"/>
<path d="M794 558.7C797.347 558.7 800.06 555.987 800.06 552.64C800.06 549.293 797.347 546.58 794 546.58C790.653 546.58 787.94 549.293 787.94 552.64C787.94 555.987 790.653 558.7 794 558.7Z" fill="#2F073A"/>
<path d="M795.08 557.28C797.825 557.28 800.05 555.055 800.05 552.31C800.05 549.565 797.825 547.34 795.08 547.34C792.335 547.34 790.11 549.565 790.11 552.31C790.11 555.055 792.335 557.28 795.08 557.28Z" fill="#D8BA9F"/>
<path d="M790.12 552.31C790.12 553.636 790.647 554.908 791.584 555.846C792.522 556.783 793.794 557.31 795.12 557.31H795.64C794.455 557.133 793.373 556.536 792.592 555.629C791.81 554.721 791.38 553.563 791.38 552.365C791.38 551.167 791.81 550.009 792.592 549.101C793.373 548.194 794.455 547.597 795.64 547.42C795.467 547.41 795.293 547.41 795.12 547.42C793.813 547.42 792.557 547.931 791.623 548.845C790.688 549.759 790.149 551.003 790.12 552.31Z" fill="#C89F87"/>
<path d="M795.08 555C795.332 555.08 795.595 555.121 795.86 555.12C796.613 555.12 797.336 554.821 797.868 554.288C798.401 553.756 798.7 553.033 798.7 552.28C798.7 551.527 798.401 550.804 797.868 550.272C797.336 549.739 796.613 549.44 795.86 549.44C795.595 549.439 795.332 549.48 795.08 549.56C795.676 549.723 796.202 550.078 796.578 550.569C796.953 551.061 797.156 551.662 797.156 552.28C797.156 552.898 796.953 553.499 796.578 553.991C796.202 554.482 795.676 554.837 795.08 555Z" fill="#F5EAE4"/>
<path d="M254.65 557.28C257.395 557.28 259.62 555.055 259.62 552.31C259.62 549.565 257.395 547.34 254.65 547.34C251.905 547.34 249.68 549.565 249.68 552.31C249.68 555.055 251.905 557.28 254.65 557.28Z" fill="#D8BA9F"/>
<path d="M255.73 558.7C259.077 558.7 261.79 555.987 261.79 552.64C261.79 549.293 259.077 546.58 255.73 546.58C252.383 546.58 249.67 549.293 249.67 552.64C249.67 555.987 252.383 558.7 255.73 558.7Z" fill="#2F073A"/>
<path d="M254.65 557.28C257.395 557.28 259.62 555.055 259.62 552.31C259.62 549.565 257.395 547.34 254.65 547.34C251.905 547.34 249.68 549.565 249.68 552.31C249.68 555.055 251.905 557.28 254.65 557.28Z" fill="#D8BA9F"/>
<path d="M259.62 552.31C259.62 553.636 259.093 554.908 258.156 555.846C257.218 556.783 255.946 557.31 254.62 557.31H254.1C255.285 557.133 256.367 556.536 257.148 555.629C257.93 554.721 258.36 553.563 258.36 552.365C258.36 551.167 257.93 550.009 257.148 549.101C256.367 548.194 255.285 547.597 254.1 547.42C254.273 547.41 254.447 547.41 254.62 547.42C255.927 547.42 257.183 547.931 258.117 548.845C259.052 549.759 259.591 551.003 259.62 552.31Z" fill="#C89F87"/>
<path d="M254.65 555C254.398 555.08 254.135 555.121 253.87 555.12C253.117 555.12 252.394 554.821 251.862 554.288C251.329 553.756 251.03 553.033 251.03 552.28C251.03 551.527 251.329 550.804 251.862 550.272C252.394 549.739 253.117 549.44 253.87 549.44C254.135 549.439 254.398 549.48 254.65 549.56C254.06 549.73 253.54 550.087 253.171 550.577C252.801 551.068 252.601 551.666 252.601 552.28C252.601 552.894 252.801 553.492 253.171 553.983C253.54 554.473 254.06 554.83 254.65 555Z" fill="#F5EAE4"/>
<path d="M282.45 557.28C285.195 557.28 287.42 555.055 287.42 552.31C287.42 549.565 285.195 547.34 282.45 547.34C279.705 547.34 277.48 549.565 277.48 552.31C277.48 555.055 279.705 557.28 282.45 557.28Z" fill="#D8BA9F"/>
<path d="M283.53 558.7C286.877 558.7 289.59 555.987 289.59 552.64C289.59 549.293 286.877 546.58 283.53 546.58C280.183 546.58 277.47 549.293 277.47 552.64C277.47 555.987 280.183 558.7 283.53 558.7Z" fill="#2F073A"/>
<path d="M282.45 557.28C285.195 557.28 287.42 555.055 287.42 552.31C287.42 549.565 285.195 547.34 282.45 547.34C279.705 547.34 277.48 549.565 277.48 552.31C277.48 555.055 279.705 557.28 282.45 557.28Z" fill="#D8BA9F"/>
<path d="M287.41 552.31C287.41 553.636 286.883 554.908 285.946 555.846C285.008 556.783 283.736 557.31 282.41 557.31H281.89C283.075 557.133 284.157 556.536 284.938 555.629C285.72 554.721 286.15 553.563 286.15 552.365C286.15 551.167 285.72 550.009 284.938 549.101C284.157 548.194 283.075 547.597 281.89 547.42C282.063 547.41 282.237 547.41 282.41 547.42C283.717 547.42 284.973 547.931 285.907 548.845C286.842 549.759 287.381 551.003 287.41 552.31Z" fill="#C89F87"/>
<path d="M282.45 555C282.198 555.08 281.935 555.121 281.67 555.12C280.917 555.12 280.194 554.821 279.662 554.288C279.129 553.756 278.83 553.033 278.83 552.28C278.83 551.527 279.129 550.804 279.662 550.272C280.194 549.739 280.917 549.44 281.67 549.44C281.935 549.439 282.198 549.48 282.45 549.56C281.854 549.723 281.328 550.078 280.953 550.569C280.577 551.061 280.374 551.662 280.374 552.28C280.374 552.898 280.577 553.499 280.953 553.991C281.328 554.482 281.854 554.837 282.45 555Z" fill="#F5EAE4"/>
<path d="M584.795 481.266C589.993 480.79 593.82 476.191 593.344 470.993C592.869 465.796 588.27 461.968 583.072 462.444L553.765 465.127C548.568 465.603 544.74 470.202 545.216 475.399C545.691 480.596 550.29 484.424 555.488 483.948L584.795 481.266Z" fill="#EA8681"/>
<path d="M586.77 498.45C597.054 498.45 605.39 490.114 605.39 479.83C605.39 469.546 597.054 461.21 586.77 461.21C576.486 461.21 568.15 469.546 568.15 479.83C568.15 490.114 576.486 498.45 586.77 498.45Z" fill="#EA8681"/>
<path d="M570.582 487.241L570.582 487.251C570.437 501.814 582.126 513.737 596.689 513.882L710.093 515.01C724.656 515.155 736.579 503.467 736.724 488.904L736.724 488.894C736.869 474.331 725.181 462.408 710.618 462.263L597.213 461.135C582.65 460.99 570.727 472.678 570.582 487.241Z" fill="#EF948C"/>
<path d="M609.24 508.211C620.584 499.29 622.55 482.864 613.632 471.523C604.713 460.181 588.287 458.218 576.943 467.138L558.981 481.263C547.637 490.183 545.671 506.609 554.59 517.951C563.509 529.292 579.935 531.255 591.279 522.335L609.24 508.211Z" fill="#EF948C"/>
<path d="M584.658 485.107C588.76 481.881 589.471 475.94 586.245 471.837C583.019 467.735 577.078 467.024 572.975 470.25L531.384 502.956C527.281 506.182 526.571 512.123 529.797 516.225C533.023 520.328 538.964 521.039 543.067 517.812L584.658 485.107Z" fill="#EF948C"/>
<path d="M584.795 481.266C589.993 480.79 593.82 476.191 593.344 470.993C592.869 465.796 588.27 461.968 583.072 462.444L553.765 465.127C548.568 465.603 544.74 470.202 545.216 475.399C545.691 480.596 550.29 484.424 555.488 483.948L584.795 481.266Z" fill="#EF948C"/>
<path d="M586.77 498.45C597.054 498.45 605.39 490.114 605.39 479.83C605.39 469.546 597.054 461.21 586.77 461.21C576.486 461.21 568.15 469.546 568.15 479.83C568.15 490.114 576.486 498.45 586.77 498.45Z" fill="#EF948C"/>
<path d="M570.582 487.241L570.582 487.251C570.437 501.814 582.126 513.737 596.689 513.882L710.093 515.01C724.656 515.155 736.579 503.467 736.724 488.904L736.724 488.894C736.869 474.331 725.181 462.408 710.618 462.263L597.213 461.135C582.65 460.99 570.727 472.678 570.582 487.241Z" fill="#EF948C"/>
<path d="M609.24 508.211C620.584 499.29 622.55 482.864 613.632 471.523C604.713 460.181 588.287 458.218 576.943 467.138L558.981 481.263C547.637 490.183 545.671 506.609 554.59 517.951C563.509 529.292 579.935 531.255 591.279 522.335L609.24 508.211Z" fill="#EF948C"/>
<path d="M552.05 511.34C556.333 516.787 562.605 520.31 569.486 521.133C576.366 521.957 583.292 520.013 588.74 515.73L591.74 513.36L599.42 507.36L610.24 507.46L707.42 508.46C714.415 508.529 721.151 505.818 726.146 500.921C731.142 496.025 733.989 489.345 734.06 482.35V482C734.062 479.863 733.8 477.733 733.28 475.66C735.516 479.606 736.688 484.065 736.68 488.6V488.87C736.649 492.333 735.935 495.756 734.581 498.943C733.227 502.131 731.258 505.02 728.787 507.446C726.316 509.873 723.391 511.789 720.18 513.085C716.968 514.381 713.533 515.032 710.07 515L602.07 513.94L591.37 522.35C587.936 525.047 583.882 526.84 579.576 527.567C575.271 528.294 570.852 527.931 566.723 526.511C562.594 525.091 558.887 522.659 555.94 519.438C552.992 516.217 550.899 512.308 549.85 508.07C550.5 509.214 551.236 510.307 552.05 511.34Z" fill="#F3A6A0"/>
<path d="M584.658 485.107C588.76 481.881 589.471 475.94 586.245 471.837C583.019 467.735 577.078 467.024 572.975 470.25L531.384 502.956C527.281 506.182 526.571 512.123 529.797 516.225C533.023 520.328 538.964 521.039 543.067 517.812L584.658 485.107Z" fill="#EF948C"/>
<path d="M596.014 500.184C599.595 497.368 600.216 492.181 597.399 488.6C594.583 485.018 589.396 484.398 585.815 487.214L573.741 496.709C570.159 499.525 569.539 504.712 572.355 508.293C575.171 511.875 580.358 512.495 583.94 509.679L596.014 500.184Z" fill="#F3A6A0"/>
<path d="M522.31 297.28C537.548 297.28 549.9 284.928 549.9 269.69C549.9 254.452 537.548 242.1 522.31 242.1C507.072 242.1 494.72 254.452 494.72 269.69C494.72 284.928 507.072 297.28 522.31 297.28Z" stroke="white" stroke-width="2.85" stroke-miterlimit="10"/>
<path d="M587.41 297.28C602.648 297.28 615 284.928 615 269.69C615 254.452 602.648 242.1 587.41 242.1C572.172 242.1 559.82 254.452 559.82 269.69C559.82 284.928 572.172 297.28 587.41 297.28Z" stroke="white" stroke-width="2.85" stroke-miterlimit="10"/>
<path d="M549.88 270.77H559.84" stroke="white" stroke-width="2.85" stroke-miterlimit="10"/>
<path d="M294.71 810.08L371.12 840.71L379.75 818.34L305.05 773.86L294.74 800.53L294.71 810.08Z" fill="#141334"/>
<path d="M406.29 505.03H390.65V502.03C390.65 500.667 391.192 499.359 392.155 498.395C393.119 497.432 394.427 496.89 395.79 496.89H401.16C402.523 496.89 403.831 497.432 404.795 498.395C405.758 499.359 406.3 500.667 406.3 502.03V505.03H406.29Z" fill="#ABB2D8"/>
<path d="M421.93 505.03H406.29V502.03C406.298 500.674 406.842 499.376 407.802 498.418C408.763 497.461 410.064 496.923 411.42 496.92H416.79C418.153 496.92 419.461 497.462 420.425 498.425C421.388 499.389 421.93 500.697 421.93 502.06V505.06V505.03Z" fill="#ABB2D8"/>
<path d="M437.58 505.03H421.94V502.03C421.94 500.667 422.482 499.359 423.445 498.395C424.409 497.432 425.717 496.89 427.08 496.89H432.45C433.813 496.89 435.121 497.432 436.085 498.395C437.048 499.359 437.59 500.667 437.59 502.03V505.03H437.58Z" fill="#ABB2D8"/>
<path d="M453.22 505.03H437.58V502.03C437.58 500.667 438.122 499.359 439.085 498.395C440.049 497.432 441.357 496.89 442.72 496.89H448.09C449.453 496.89 450.761 497.432 451.725 498.395C452.688 499.359 453.23 500.667 453.23 502.03V505.03H453.22Z" fill="#ABB2D8"/>
<path d="M468.86 505.03H453.22V502.03C453.22 500.667 453.762 499.359 454.725 498.395C455.689 497.432 456.997 496.89 458.36 496.89H463.73C465.093 496.89 466.401 497.432 467.365 498.395C468.328 499.359 468.87 500.667 468.87 502.03V505.03H468.86Z" fill="#ABB2D8"/>
<path d="M484.51 505.03H468.87V502.03C468.87 500.667 469.412 499.359 470.375 498.395C471.339 497.432 472.647 496.89 474.01 496.89H479.37C480.733 496.89 482.041 497.432 483.005 498.395C483.968 499.359 484.51 500.667 484.51 502.03V505.03Z" fill="#ABB2D8"/>
<path d="M500.14 505.03H484.5V502.03C484.508 500.67 485.054 499.369 486.02 498.411C486.985 497.454 488.29 496.917 489.65 496.92H495.02C496.383 496.92 497.691 497.462 498.655 498.425C499.618 499.389 500.16 500.697 500.16 502.06V505.06L500.14 505.03Z" fill="#ABB2D8"/>
<path d="M348.77 513.36H514.57C518.088 513.36 520.94 510.508 520.94 506.99V506.98C520.94 503.462 518.088 500.61 514.57 500.61H348.77C345.252 500.61 342.4 503.462 342.4 506.98V506.99C342.4 510.508 345.252 513.36 348.77 513.36Z" fill="#5D6295"/>
<path d="M391.58 513.36H242.58C239.545 513.36 236.598 512.347 234.204 510.481C231.811 508.615 230.11 506.003 229.37 503.06L200.37 387.7C199.865 385.69 199.825 383.591 200.254 381.563C200.682 379.535 201.567 377.632 202.842 375.997C204.117 374.363 205.747 373.041 207.61 372.132C209.472 371.222 211.517 370.75 213.59 370.75H345.07C348.105 370.75 351.052 371.763 353.446 373.629C355.839 375.495 357.54 378.107 358.28 381.05L391.58 513.36Z" fill="#666DA2"/>
<path d="M200.36 387.7L229.36 503.06C230.103 506.004 231.806 508.616 234.201 510.484C236.595 512.351 239.544 513.367 242.58 513.37H391.58L388.37 500.62H270.67C267.633 500.618 264.684 499.603 262.289 497.736C259.894 495.868 258.191 493.255 257.45 490.31L228.42 375C228.075 373.625 227.943 372.205 228.03 370.79H213.58C211.512 370.791 209.471 371.264 207.612 372.171C205.753 373.078 204.125 374.396 202.851 376.025C201.578 377.655 200.691 379.553 200.26 381.575C199.828 383.598 199.862 385.693 200.36 387.7Z" fill="#5D6295"/>
<path d="M286.64 453.33C290.76 453.33 294.1 449.99 294.1 445.87C294.1 441.75 290.76 438.41 286.64 438.41C282.52 438.41 279.18 441.75 279.18 445.87C279.18 449.99 282.52 453.33 286.64 453.33Z" fill="#ABB2D8"/>
<path d="M276.66 457C277.837 458.841 279.412 460.394 281.27 461.545C283.127 462.696 285.218 463.416 287.39 463.652C289.562 463.888 291.76 463.634 293.821 462.908C295.882 462.182 297.753 461.003 299.298 459.458C300.843 457.913 302.022 456.042 302.748 453.981C303.474 451.92 303.728 449.722 303.492 447.55C303.256 445.378 302.536 443.287 301.385 441.43C300.234 439.572 298.681 437.997 296.84 436.82C298.623 439.626 299.396 442.956 299.032 446.26C298.668 449.565 297.188 452.647 294.838 454.998C292.487 457.348 289.405 458.828 286.101 459.192C282.796 459.556 279.466 458.783 276.66 457Z" fill="#ABB2D8"/>
<path d="M578.13 845.66H663.85L672.59 823.63L562.53 806.35L578.13 845.66Z" fill="#332D52"/>
<path d="M656.73 841.83C659.685 841.83 662.08 839.435 662.08 836.48C662.08 833.525 659.685 831.13 656.73 831.13C653.775 831.13 651.38 833.525 651.38 836.48C651.38 839.435 653.775 841.83 656.73 841.83Z" fill="#141334"/>
<path d="M657.04 841.83C659.194 841.83 660.94 840.084 660.94 837.93C660.94 835.776 659.194 834.03 657.04 834.03C654.886 834.03 653.14 835.776 653.14 837.93C653.14 840.084 654.886 841.83 657.04 841.83Z" fill="#666DA2"/>
<path d="M657 840.48C657.173 840.495 657.347 840.495 657.52 840.48C658.183 840.439 658.805 840.147 659.26 839.663C659.715 839.179 659.969 838.539 659.969 837.875C659.969 837.211 659.715 836.571 659.26 836.087C658.805 835.603 658.183 835.311 657.52 835.27C657.345 835.27 657.17 835.29 657 835.33C657.582 835.457 658.103 835.779 658.476 836.243C658.85 836.707 659.054 837.284 659.054 837.88C659.054 838.476 658.85 839.053 658.476 839.517C658.103 839.981 657.582 840.303 657 840.43V840.48Z" fill="#332D52"/>
<path d="M657.64 834.67C657.42 834.621 657.195 834.597 656.97 834.6C656.12 834.647 655.32 835.017 654.734 835.636C654.149 836.254 653.822 837.073 653.822 837.925C653.822 838.777 654.149 839.596 654.734 840.214C655.32 840.833 656.12 841.203 656.97 841.25C657.195 841.253 657.42 841.229 657.64 841.18C656.896 841.019 656.23 840.609 655.752 840.016C655.273 839.424 655.013 838.686 655.013 837.925C655.013 837.164 655.273 836.426 655.752 835.833C656.23 835.241 656.896 834.831 657.64 834.67Z" fill="#9DA5D1"/>
<path d="M288.31 815.29L367.87 847.18L384.18 829.99L288.45 773L288.31 815.29Z" fill="#262344"/>
<path d="M365.1 838.14C368.055 838.14 370.45 835.745 370.45 832.79C370.45 829.835 368.055 827.44 365.1 827.44C362.145 827.44 359.75 829.835 359.75 832.79C359.75 835.745 362.145 838.14 365.1 838.14Z" fill="#141334"/>
<path d="M365.41 838.14C367.564 838.14 369.31 836.394 369.31 834.24C369.31 832.086 367.564 830.34 365.41 830.34C363.256 830.34 361.51 832.086 361.51 834.24C361.51 836.394 363.256 838.14 365.41 838.14Z" fill="#666DA2"/>
<path d="M365.41 836.78C365.58 836.82 365.755 836.84 365.93 836.84C366.593 836.799 367.215 836.507 367.67 836.023C368.125 835.539 368.379 834.899 368.379 834.235C368.379 833.571 368.125 832.931 367.67 832.447C367.215 831.963 366.593 831.671 365.93 831.63C365.757 831.615 365.583 831.615 365.41 831.63C365.992 831.757 366.513 832.079 366.886 832.543C367.26 833.007 367.464 833.584 367.464 834.18C367.464 834.776 367.26 835.353 366.886 835.817C366.513 836.281 365.992 836.603 365.41 836.73V836.78Z" fill="#332D52"/>
<path d="M289.9 421.405L278.066 401.64L245.863 403.381L293.2 482.441L331.737 398.738L299.534 400.479L289.9 421.405Z" fill="#81C784"/>
<path d="M299.534 400.479L289.9 421.405L278.066 401.64L262.561 402.478L291.489 450.792L315.039 399.641L299.534 400.479Z" fill="#455A64"/>
<path d="M366 831C365.78 830.951 365.555 830.927 365.33 830.93C364.48 830.977 363.68 831.347 363.094 831.966C362.509 832.584 362.182 833.403 362.182 834.255C362.182 835.107 362.509 835.926 363.094 836.544C363.68 837.163 364.48 837.533 365.33 837.58C365.555 837.583 365.78 837.559 366 837.51C365.256 837.349 364.59 836.939 364.112 836.346C363.633 835.754 363.373 835.016 363.373 834.255C363.373 833.494 363.633 832.756 364.112 832.164C364.59 831.571 365.256 831.161 366 831Z" fill="#9DA5D1"/>
<path d="M581.11 734.287C585.8 734.287 589.603 731.177 589.603 727.34C589.603 723.503 585.8 720.393 581.11 720.393C576.419 720.393 572.617 723.503 572.617 727.34C572.617 731.177 576.419 734.287 581.11 734.287Z" fill="#E1E1E2"/>
<path d="M681.632 920.909L645.051 944.655C644.534 944.996 644.155 945.458 643.966 945.979C643.777 946.5 643.787 947.056 643.994 947.573C644.2 948.089 644.594 948.542 645.123 948.871C645.652 949.2 646.291 949.39 646.955 949.414L704.222 951.164L709.142 940.665L713.635 951.304H726.791C726.791 951.304 731.069 914.89 723.133 916.937L718.854 910.393L694.959 915.292L681.632 920.909Z" fill="#81C784"/>
<path d="M915.77 960.403L892.837 951.269C891.47 950.729 890.343 949.854 889.61 948.766C888.878 947.678 888.578 946.431 888.751 945.197L892.666 916.692L916.989 913.84L938.831 941.47C939.77 942.662 940.162 944.087 939.939 945.493C939.716 946.899 938.891 948.196 937.611 949.152L923.942 959.424C922.854 960.235 921.495 960.761 920.039 960.936C918.583 961.111 917.096 960.925 915.77 960.403Z" fill="#81C784"/>
<path d="M684.926 410.056C684.926 410.056 651.555 473.296 654.571 577.01C654.571 577.01 650.1 759.66 678.102 892.194H730.235L750.622 554.297L876.644 888.099L924.669 888.922C924.669 888.922 852.663 484.442 826.158 431.579L752.547 405.594L684.926 410.056Z" fill="#2F2E41"/>
<path d="M694.916 414.815C694.916 414.815 652.132 481.485 675.129 697.89L687.13 864.389" stroke="white" stroke-miterlimit="10"/>
<path d="M731.925 864.389H672.818" stroke="white" stroke-miterlimit="10"/>
<path d="M796.145 436.339L897.415 864.389" stroke="white" stroke-miterlimit="10"/>
<path d="M867.702 864.389H920.262" stroke="white" stroke-miterlimit="10"/>
<path d="M681.632 892.159V920.874C686.167 922.054 690.172 924.307 693.141 927.349C695.038 928.038 697.121 928.314 699.187 928.148C701.253 927.983 703.231 927.382 704.928 926.404C706.706 925.51 708.283 924.374 709.592 923.044C711.731 920.944 716.972 916.395 723.133 916.71L726.791 892.212L681.632 892.159Z" fill="#F9B499"/>
<path d="M882.013 888.204L892.709 916.745C894.347 918.926 896.621 920.742 899.328 922.028C902.035 923.313 905.09 924.029 908.218 924.111C908.218 924.111 917.717 923.289 917.225 909.78V888.782L882.013 888.204Z" fill="#F9B499"/>
<path d="M717.635 255.561C717.635 255.561 669.117 260.985 662.015 289.211C662.015 289.211 642.506 335.442 638.484 356.72L564.723 332.205L549.642 368.532L666.636 412.698L717.635 416.408V426.032C717.635 426.032 800.145 442.166 844.662 433.976C844.662 433.976 860.171 430.302 859.166 406.976C859.166 406.976 872.429 277.872 806.284 268.177L761.853 256.961L717.635 255.561Z" fill="#455A64"/>
<path opacity="0.2" d="M796.145 395.165L740.375 392.207L780.657 381.673L794.155 337.087L796.145 395.165Z" fill="black"/>
<path opacity="0.2" d="M625.306 397.159C625.306 397.159 657.63 393.537 665.631 381.673C665.631 381.673 649.116 329.72 690.638 299.027C690.638 299.027 663.62 334.217 681.14 377.176L666.636 412.698L625.306 397.159Z" fill="black"/>
<path d="M640.58 353.85L659.833 418.49C660.027 419.147 660.527 419.716 661.226 420.076C661.926 420.435 662.769 420.557 663.577 420.415L698.81 414.448C699.231 414.372 699.63 414.228 699.982 414.023C700.335 413.819 700.633 413.559 700.86 413.259C701.088 412.959 701.239 412.625 701.306 412.276C701.373 411.927 701.353 411.571 701.249 411.228L680.413 346.169C680.206 345.51 679.69 344.945 678.978 344.594C678.265 344.244 677.413 344.137 676.605 344.296L642.955 350.788C642.151 350.947 641.453 351.355 641.01 351.926C640.567 352.498 640.413 353.188 640.58 353.85Z" fill="#2E3135"/>
<path d="M523.586 323.175C523.586 323.175 517.596 325.223 519.094 329.72C518.001 330.336 517.205 331.244 516.842 332.288C516.479 333.333 516.572 334.448 517.104 335.442C517.104 335.442 509.596 341.164 534.09 348.531L554.07 357.84L563.226 335.704C563.226 335.704 537.106 310.086 532.635 319.956L507.991 305.414C507.631 305.203 507.221 305.057 506.787 304.985C506.352 304.913 505.905 304.917 505.472 304.996C505.04 305.075 504.633 305.228 504.279 305.445C503.924 305.662 503.629 305.938 503.413 306.254C503.051 306.769 502.921 307.372 503.046 307.957C503.171 308.542 503.544 309.073 504.098 309.457L523.586 323.175Z" fill="#F9B499"/>
<path d="M517.104 335.442C517.104 335.442 533.555 339.694 526.581 345.941" stroke="#F7A48B" stroke-miterlimit="10"/>
<path d="M519.094 329.72C519.094 329.72 538.347 332.047 527.437 340.691" stroke="#F7A48B" stroke-miterlimit="10"/>
<path d="M532.635 319.956C532.635 319.956 519.308 326.955 524.977 331.067C524.977 331.067 527.116 332.625 533.127 329.772C533.127 329.772 536.764 326.92 537.192 331.417" stroke="#F7A48B" stroke-miterlimit="10"/>
<path d="M670.915 402.216L661.63 398.857" stroke="#F7A48B" stroke-miterlimit="10"/>
<path d="M644.089 353.045L663.342 417.668C663.54 418.326 664.044 418.895 664.747 419.255C665.45 419.614 666.296 419.735 667.107 419.593L702.275 413.538C702.698 413.465 703.098 413.321 703.451 413.118C703.804 412.914 704.102 412.653 704.328 412.352C704.554 412.051 704.703 411.716 704.766 411.366C704.829 411.016 704.804 410.66 704.693 410.318L683.878 345.259C683.661 344.605 683.144 344.045 682.435 343.696C681.725 343.347 680.878 343.236 680.07 343.386L646.42 349.878C646.012 349.96 645.628 350.107 645.29 350.311C644.952 350.515 644.666 350.771 644.449 351.065C644.233 351.36 644.089 351.686 644.027 352.026C643.966 352.366 643.986 352.712 644.089 353.045Z" fill="#3F4347"/>
<path d="M722.641 393.117L717.635 416.46C717.635 416.46 661.63 408.253 661.63 398.857C661.63 398.857 645.115 391.49 661.63 393.117C661.63 393.117 647.362 389.145 653.779 387.605C655.288 387.29 656.87 387.29 658.379 387.605L679.621 391.56C679.621 391.56 666.615 385.82 661.844 381.498C661.611 381.231 661.474 380.915 661.45 380.588C661.426 380.26 661.514 379.933 661.706 379.645C661.898 379.356 662.185 379.118 662.535 378.957C662.885 378.796 663.283 378.718 663.684 378.733C667.962 379.241 677.033 381.376 696.628 388.69C696.628 388.69 700.714 389.373 695.665 378.593C695.665 378.593 712.629 382.093 718.127 394.01L722.641 393.117Z" fill="#F9B499"/>
<path d="M717.635 238.972V259.97C717.628 261.265 718.06 262.536 718.883 263.642C719.707 264.748 720.889 265.646 722.299 266.235C728.459 268.79 740.696 270.872 758.665 260.303C759.904 259.568 760.915 258.606 761.617 257.494C762.319 256.381 762.693 255.15 762.708 253.898L763.136 220.511L717.635 238.972Z" fill="#F9B499"/>
<path d="M717.635 255.561V238.972L754.9 226.426C754.9 226.426 750.387 254.843 717.635 255.561Z" fill="#F7A48B"/>
<path d="M768.597 202.215C770.915 178.905 756.948 158.954 737.4 157.653C717.852 156.352 700.127 174.195 697.809 197.505C695.491 220.816 709.459 240.767 729.006 242.067C748.554 243.368 766.279 225.525 768.597 202.215Z" fill="#F9B499"/>
<path d="M656.71 225.813C656.71 225.813 680.241 225.393 684.22 234.808L691.964 228.421C692.353 228.103 692.823 227.859 693.34 227.707C693.857 227.555 694.409 227.498 694.956 227.539C695.504 227.581 696.033 227.721 696.507 227.949C696.98 228.177 697.387 228.487 697.698 228.858C698.066 229.298 698.285 229.81 698.334 230.341C698.383 230.873 698.259 231.405 697.976 231.885L693.077 240.127L717.635 242.962V238.937C717.635 238.937 695.858 230.485 697.74 197.448C697.74 197.448 698.318 186.127 703.73 178.2H710.79C710.79 178.2 714.127 165.303 722.641 164.481V178.48L767.565 186.232C768.59 190.73 768.992 195.308 768.763 199.88L763.158 220.494L762.687 253.269H771.693V248.544C771.693 248.176 771.871 247.822 772.187 247.56C772.503 247.298 772.933 247.149 773.383 247.144C773.753 247.143 774.113 247.239 774.41 247.419C774.706 247.599 774.924 247.852 775.03 248.141C775.993 250.766 779.052 257.748 784.7 259.411C784.7 259.411 783.202 252.866 789.684 256.541C789.684 256.541 793.192 260.215 799.204 255.718C799.204 255.718 805.621 263.488 811.697 255.718C811.697 255.718 815.697 250.819 803.14 242.227C803.14 242.227 784.635 231.99 790.625 222.174C790.625 222.174 805.6 209.085 799.182 192.723C799.182 192.723 822.928 189.924 814.863 169.713C813.986 167.413 812.481 165.307 810.461 163.555C808.441 161.802 805.959 160.449 803.204 159.599C797.685 157.954 790.262 157.954 782.561 164.498C782.561 164.498 768.527 141.75 736.589 149.677C736.589 149.677 700.222 140.77 698.66 173.09C698.66 173.09 700.158 213.582 677.653 214.824C673.213 214.707 668.833 215.695 665.094 217.657C661.355 219.619 658.431 222.463 656.71 225.813Z" fill="#2F2E41"/>
<path d="M772.656 223.364C780.666 223.364 787.16 218.052 787.16 211.499C787.16 204.947 780.666 199.635 772.656 199.635C764.646 199.635 758.152 204.947 758.152 211.499C758.152 218.052 764.646 223.364 772.656 223.364Z" fill="#F9B499"/>
</g>
<defs>
<filter id="filter0_d_1_8737" x="-4" y="0" width="1008" height="1008" filterUnits="userSpaceOnUse" color-interpolation-filters="sRGB">
<feFlood flood-opacity="0" result="BackgroundImageFix"/>
<feColorMatrix in="SourceAlpha" type="matrix" values="0 0 0 0 0 0 0 0 0 0 0 0 0 0 0 0 0 0 127 0" result="hardAlpha"/>
<feOffset dy="4"/>
<feGaussianBlur stdDeviation="2"/>
<feComposite in2="hardAlpha" operator="out"/>
<feColorMatrix type="matrix" values="0 0 0 0 0 0 0 0 0 0 0 0 0 0 0 0 0 0 0.25 0"/>
<feBlend mode="normal" in2="BackgroundImageFix" result="effect1_dropShadow_1_8737"/>
<feBlend mode="normal" in="SourceGraphic" in2="effect1_dropShadow_1_8737" result="shape"/>
</filter>
<clipPath id="clip0_1_8737">
<rect width="1000" height="1000" fill="white"/>
</clipPath>
</defs>
</svg>
